<svg xmlns="http://www.w3.org/2000/svg" viewBox="0 0 512 512">
  <defs>
    <linearGradient id="bg" x1="0" y1="0" x2="1" y2="1">
      <stop offset="0" stop-color="#2b2b30"></stop>
      <stop offset="1" stop-color="#141416"></stop>
    </linearGradient>
    <linearGradient id="gemTL" x1="0" y1="0" x2="1" y2="1">
      <stop offset="0" stop-color="#c4b5fd"></stop>
      <stop offset="1" stop-color="#8b5cf6"></stop>
    </linearGradient>
    <linearGradient id="gemTR" x1="0" y1="0" x2="1" y2="1">
      <stop offset="0" stop-color="#a78bfa"></stop>
      <stop offset="1" stop-color="#7c3aed"></stop>
    </linearGradient>
    <linearGradient id="gemB" x1="0" y1="0" x2="0" y2="1">
      <stop offset="0" stop-color="#7c3aed"></stop>
      <stop offset="1" stop-color="#4c1d95"></stop>
    </linearGradient>
  </defs>
  <rect width="512" height="512" rx="110" fill="url(#bg)"></rect>

  <g stroke="#8b5cf6" stroke-width="22" fill="none" stroke-linecap="round" opacity="0.5">
    <path d="M 122 330 A 146 146 0 0 1 168 148"></path>
    <path d="M 390 182 A 146 146 0 0 1 344 364"></path>
  </g>
  <g fill="#8b5cf6" opacity="0.5">
    <path d="M201 121 L157 134 L179 162 Z"></path>
    <path d="M311 391 L355 378 L333 350 Z"></path>
  </g>

  <path d="M256 88 L396 216 L342 424 L170 424 L116 216 Z" fill="url(#gemB)"></path>
  <path d="M256 88 L116 216 L256 268 Z" fill="url(#gemTL)"></path>
  <path d="M256 88 L396 216 L256 268 Z" fill="url(#gemTR)"></path>
  <path d="M116 216 L256 268 L170 424 Z" fill="#6d28d9"></path>
  <path d="M396 216 L256 268 L342 424 Z" fill="#5b21b6"></path>
</svg>
